<svg width="44" height="44" viewBox="0 0 44 44" fill="none" xmlns="http://www.w3.org/2000/svg">
<rect x="0.5" y="0.499268" width="43" height="43" rx="7.5" stroke="white" stroke-opacity="0.2"/>
<path d="M33.9883 21.9953C33.9883 23.6777 33.9544 25.3649 33.998 27.0474C34.0705 30.0254 32.1985 32.3267 29.8137 33.3516C28.8559 33.7626 27.8497 33.9801 26.8097 33.9801C23.5542 33.9849 20.2938 34.0285 17.0383 33.9656C14.5858 33.9173 12.5686 32.8923 11.1223 30.8715C10.3628 29.8079 10 28.5993 10 27.2891C10 23.8227 10 20.3612 10 16.8948C10 14.0666 11.3786 12.0893 13.8263 10.8033C14.8905 10.2473 16.0467 10.0104 17.2511 10.0056C20.4099 10.0056 23.5735 9.98624 26.7323 10.0153C29.1848 10.0346 31.231 10.9725 32.7403 12.945C33.5819 14.0473 33.9883 15.3139 33.9883 16.7063C33.9883 18.466 33.9883 20.2307 33.9883 21.9953ZM11.785 21.9953C11.785 23.7695 11.785 25.539 11.785 27.3133C11.785 28.1061 11.9688 28.8507 12.38 29.5227C13.4587 31.2873 15.0889 32.1478 17.1109 32.1817C20.3567 32.23 23.6074 32.201 26.8581 32.1913C27.6562 32.1913 28.4302 32.0269 29.151 31.6837C31.1149 30.7458 32.213 29.2519 32.2033 27.0087C32.184 23.5762 32.1985 20.1436 32.1985 16.7111C32.1985 15.7394 31.9227 14.8498 31.3471 14.0666C30.2345 12.5631 28.6963 11.8234 26.8581 11.804C23.6171 11.7654 20.3761 11.7895 17.1351 11.7944C16.4433 11.7944 15.7758 11.9346 15.1276 12.1763C13.3474 12.8386 11.6931 14.5162 11.7705 16.9867C11.8285 18.6594 11.785 20.3273 11.785 21.9953Z" fill="white"/>
<path d="M22.0208 27.12C18.9007 27.12 16.3853 24.635 16.3804 21.5409C16.3756 18.4951 18.9104 16.0005 22.0111 16.0005C25.1215 15.9957 27.6466 18.4855 27.6514 21.5554C27.6514 24.6205 25.1312 27.1151 22.0208 27.12ZM22.0208 25.3312C24.1443 25.3312 25.8664 23.6342 25.8616 21.5457C25.8568 19.4765 24.1347 17.7844 22.0208 17.7844C19.8972 17.7844 18.1654 19.4717 18.1654 21.5554C18.1702 23.6439 19.8972 25.336 22.0208 25.3312Z" fill="white"/>
<path d="M28.3044 14.3083C28.9574 14.3083 29.4895 14.8643 29.4895 15.546C29.4847 16.2277 28.9477 16.7788 28.2947 16.774C27.6513 16.7691 27.1241 16.218 27.1241 15.5508C27.1192 14.8692 27.6513 14.3083 28.3044 14.3083Z" fill="white"/>
</svg>
