<svg width="44" height="44" viewBox="0 0 44 44" fill="none" xmlns="http://www.w3.org/2000/svg">
<rect x="0.5" y="0.499268" width="43" height="43" rx="7.5" stroke="white" stroke-opacity="0.2"/>
<path fill-rule="evenodd" clip-rule="evenodd" d="M11 12.8373C11 12.3498 11.1936 11.8823 11.5383 11.5376C11.883 11.1929 12.3505 10.9993 12.838 10.9993H31.16C31.4016 10.9989 31.6409 11.0461 31.8641 11.1383C32.0874 11.2305 32.2903 11.3659 32.4612 11.5366C32.6322 11.7073 32.7677 11.9101 32.8602 12.1333C32.9526 12.3565 33.0001 12.5957 33 12.8373V31.1593C33.0003 31.4009 32.9529 31.6402 32.8606 31.8635C32.7683 32.0868 32.6328 32.2897 32.462 32.4606C32.2912 32.6315 32.0884 32.767 31.8651 32.8595C31.6419 32.9519 31.4026 32.9994 31.161 32.9993H12.838C12.5965 32.9993 12.3575 32.9517 12.1344 32.8593C11.9113 32.7668 11.7087 32.6314 11.538 32.4606C11.3673 32.2898 11.2319 32.0871 11.1396 31.8639C11.0473 31.6408 10.9999 31.4017 11 31.1603V12.8373ZM19.708 19.3873H22.687V20.8833C23.117 20.0233 24.217 19.2493 25.87 19.2493C29.039 19.2493 29.79 20.9623 29.79 24.1053V29.9273H26.583V24.8213C26.583 23.0313 26.153 22.0213 25.061 22.0213C23.546 22.0213 22.916 23.1103 22.916 24.8213V29.9273H19.708V19.3873ZM14.208 29.7903H17.416V19.2493H14.208V29.7893V29.7903ZM17.875 15.8113C17.881 16.0859 17.8322 16.3591 17.7312 16.6146C17.6303 16.8701 17.4794 17.1029 17.2872 17.2993C17.0951 17.4957 16.8657 17.6517 16.6125 17.7583C16.3592 17.8648 16.0872 17.9197 15.8125 17.9197C15.5378 17.9197 15.2658 17.8648 15.0125 17.7583C14.7593 17.6517 14.5299 17.4957 14.3378 17.2993C14.1456 17.1029 13.9947 16.8701 13.8938 16.6146C13.7928 16.3591 13.744 16.0859 13.75 15.8113C13.7619 15.2721 13.9844 14.7591 14.3699 14.382C14.7554 14.0049 15.2732 13.7937 15.8125 13.7937C16.3518 13.7937 16.8696 14.0049 17.2551 14.382C17.6406 14.7591 17.8631 15.2721 17.875 15.8113Z" fill="white"/>
</svg>
