<svg width="44" height="44" viewBox="0 0 44 44" fill="none" xmlns="http://www.w3.org/2000/svg">
<rect x="0.5" y="0.499268" width="43" height="43" rx="7.5" stroke="white" stroke-opacity="0.2"/>
<path d="M14.372 18.2633C14.3843 18.1415 14.3678 18.0186 14.3241 17.9044C14.2803 17.7901 14.2104 17.6877 14.12 17.6053L12.252 15.3383V14.9993H18.05L22.532 24.9043L26.472 14.9993H32V15.3383L30.403 16.8793C30.3353 16.9315 30.2831 17.0012 30.2519 17.0808C30.2208 17.1604 30.2118 17.247 30.226 17.3313V28.6653C30.2118 28.7496 30.2208 28.8362 30.2519 28.9158C30.2831 28.9954 30.3353 29.065 30.403 29.1173L31.963 30.6593V30.9993H24.119V30.6603L25.735 29.0803C25.894 28.9203 25.894 28.8733 25.894 28.6293V19.4673L21.402 30.9613H20.796L15.566 19.4673V27.1713C15.523 27.4943 15.63 27.8213 15.856 28.0553L17.957 30.6233V30.9613H12V30.6233L14.1 28.0553C14.2111 27.9393 14.2936 27.799 14.3408 27.6455C14.388 27.492 14.3987 27.3296 14.372 27.1713V18.2633Z" fill="white"/>
</svg>
