<svg width="44" height="44" viewBox="0 0 44 44" fill="none" xmlns="http://www.w3.org/2000/svg">
<g clip-path="url(#clip0_242:53)">
<rect x="0.5" y="0.499268" width="43" height="43" rx="7.5" stroke="white" stroke-opacity="0.2"/>
<path d="M24.6823 31.9834C24.5833 31.9874 24.52 31.9953 24.4567 31.9953C23.1029 31.9953 21.753 31.9913 20.3992 31.9993C20.2092 31.9993 20.1578 31.9477 20.1578 31.7572C20.1617 28.5978 20.1617 25.4345 20.1617 22.2751C20.1617 22.1918 20.1617 22.1084 20.1617 22.0013C19.4254 22.0013 18.709 22.0013 17.9806 22.0013C17.9806 20.8741 17.9806 19.7667 17.9806 18.6276C18.0558 18.6276 18.1271 18.6276 18.1943 18.6276C18.7881 18.6276 19.3819 18.6236 19.9757 18.6315C20.1261 18.6315 20.1657 18.5879 20.1657 18.441C20.1578 17.5559 20.1578 16.6669 20.1657 15.7818C20.1696 15.1626 20.2686 14.5593 20.5536 13.9997C20.9613 13.2098 21.6066 12.6978 22.422 12.3803C23.087 12.1183 23.7877 12.0231 24.4923 12.0112C25.6403 11.9953 26.7882 12.0032 27.9362 11.9993C28.0431 11.9993 28.1301 11.9953 28.1301 12.1461C28.1262 13.2376 28.1262 14.3291 28.1262 15.4206C28.1262 15.4325 28.1222 15.4444 28.1064 15.496C28.0391 15.496 27.9639 15.496 27.8887 15.496C27.1762 15.496 26.4636 15.492 25.7511 15.496C25.3394 15.496 25.0069 15.6627 24.7971 16.0239C24.7338 16.131 24.6942 16.27 24.6942 16.397C24.6823 17.0717 24.6942 17.7464 24.6863 18.4212C24.6863 18.5799 24.7338 18.6236 24.8881 18.6236C25.8778 18.6157 26.8674 18.6196 27.857 18.6196C27.9362 18.6196 28.0114 18.6196 28.146 18.6196C28.0074 19.7548 27.8728 20.8661 27.7343 21.9894C26.7051 21.9894 25.7036 21.9894 24.6823 21.9894C24.6823 25.3273 24.6823 28.6454 24.6823 31.9834Z" fill="white"/>
</g>
<defs>
<clipPath id="clip0_242:53">
<rect width="44" height="44" fill="white" transform="translate(0 -0.000732422)"/>
</clipPath>
</defs>
</svg>
