<svg width="44" height="44" viewBox="0 0 44 44" fill="none" xmlns="http://www.w3.org/2000/svg">
<rect x="0.5" y="0.5" width="43" height="43" rx="7.5" stroke="white" stroke-opacity="0.2"/>
<path d="M33.7599 14.3677C32.9023 14.7692 31.9885 15.0354 31.0358 15.1646C32.0159 14.54 32.764 13.5585 33.1157 12.3754C32.2019 12.9569 31.1929 13.3677 30.1177 13.5969C29.25 12.6108 28.0133 12 26.6643 12C24.0468 12 21.9396 14.2677 21.9396 17.0477C21.9396 17.4477 21.9713 17.8323 22.0491 18.1985C18.1186 17.9938 14.6407 15.9831 12.3043 12.92C11.8964 13.6754 11.6571 14.54 11.6571 15.4708C11.6571 17.2185 12.5003 18.7677 13.7571 19.6646C12.9975 19.6492 12.2524 19.4138 11.6211 19.0431C11.6211 19.0585 11.6211 19.0785 11.6211 19.0985C11.6211 21.5508 13.2599 23.5877 15.4089 24.0569C15.024 24.1692 14.6046 24.2231 14.1693 24.2231C13.8667 24.2231 13.5611 24.2046 13.2743 24.1369C13.8868 26.1354 15.6251 27.6046 17.692 27.6523C16.0834 28.9954 14.0411 29.8046 11.8301 29.8046C11.4423 29.8046 11.0705 29.7862 10.6986 29.7354C12.7929 31.1769 15.2748 32 17.9514 32C26.6513 32 31.4077 24.3077 31.4077 17.64C31.4077 17.4169 31.4005 17.2015 31.3904 16.9877C32.3287 16.2769 33.1171 15.3892 33.7599 14.3677Z" fill="white"/>
</svg>
