<svg width="144" height="59" viewBox="0 0 144 59" fill="none" xmlns="http://www.w3.org/2000/svg">
<g filter="url(#filter0_d_138:106)">
<path d="M125.596 20.5958L124.494 27L122.16 21.8442L117 19.5061L123.409 18.4085L124.506 12L126.849 17.1558L132 19.4939L125.596 20.5958Z" fill="#B5C9FF"/>
</g>
<g clip-path="url(#clip0_138:106)">
<path d="M46.9999 53.9999V54.7453H44.7687V56.1096H46.7281V56.8128H44.7667V58.9999H43.9999V53.9999H46.9999Z" fill="#82C8F4"/>
<path d="M52 53.9999V58.9999H51V53.9999H52Z" fill="#82C8F4"/>
<path d="M60 53.9999V58.9999H59.1126L56.8138 55.3201V58.9999H56V53.9999H56.9034L59.1655 57.6867V53.9999H60Z" fill="#82C8F4"/>
<path d="M66.3847 53.9999L68 58.9999H67.2169L66.8253 57.6745H65.1689L64.7577 58.9999H64L65.6016 53.9999H66.3847ZM66.6197 57.0153L65.9971 54.9115L65.3451 57.0153H66.6197Z" fill="#82C8F4"/>
<path d="M76 53.9999V58.9999H75.1109L72.8133 55.3201V58.9999H72V53.9999H72.9029L75.1637 57.6867V53.9999H76Z" fill="#82C8F4"/>
<path d="M84 57.0673C83.9816 57.5983 83.7738 58.1011 83.4198 58.4707C83.0526 58.8306 82.5687 59.0201 82.073 58.9981C81.791 59.0106 81.51 58.9558 81.2499 58.8376C80.9899 58.7194 80.7572 58.5407 80.5686 58.3143C80.1747 57.807 79.9727 57.1582 80.003 56.4974C79.9975 56.0682 80.0803 55.6431 80.2454 55.2526C80.3807 54.9599 80.5732 54.7023 80.8098 54.4976C81.0463 54.2929 81.3212 54.1459 81.6155 54.0669C81.9097 53.9879 82.2164 53.9786 82.5143 54.0398C82.8122 54.101 83.0943 54.2311 83.3411 54.4212C83.5157 54.5668 83.661 54.7494 83.7678 54.9577C83.8747 55.1659 83.941 55.3956 83.9627 55.6325H83.1919C83.1479 55.3673 83.0152 55.1287 82.8189 54.9621C82.6027 54.7993 82.3444 54.714 82.0807 54.7184C81.817 54.7228 81.5613 54.8167 81.3498 54.9867C81.1481 55.1605 80.997 55.3932 80.9147 55.6571C80.7665 56.1375 80.7457 56.653 80.8546 57.1455C80.9021 57.3451 80.9775 57.5358 81.0784 57.7109C81.1809 57.8852 81.3237 58.0277 81.4928 58.1243C81.6768 58.2304 81.883 58.2835 82.0916 58.2785C82.7505 58.2785 83.1277 57.8718 83.223 57.0583L84 57.0673Z" fill="#82C8F4"/>
<path d="M91.9538 53.9999V54.7383H88.9557V56.0674H91.738V56.7706H88.9557V58.2474H92V58.9999H88V53.9999H91.9538Z" fill="#82C8F4"/>
<path d="M20.7242 32.3318V41.5408C20.7242 47.0722 23.5072 49.8378 29.0732 49.8378C29.607 49.8313 30.1393 49.7812 30.665 49.6878C31.159 49.6095 31.6478 49.5007 32.1285 49.3619C32.3547 49.2888 32.5623 49.1671 32.7369 49.0051C32.9114 48.8431 33.0487 48.6449 33.1391 48.4241C33.3337 47.937 33.4289 47.4156 33.4192 46.8909C33.4192 46.1406 33.3025 45.6436 33.0738 45.3974C32.9643 45.281 32.8291 45.1921 32.679 45.1379C32.529 45.0838 32.3684 45.0659 32.2102 45.0856C31.8777 45.1222 31.5479 45.1802 31.2229 45.2591C30.7978 45.3496 30.3642 45.3928 29.9298 45.3881C28.5822 45.3881 27.6074 45.0427 27.0052 44.3518C26.403 43.661 26.1011 42.624 26.0996 41.2407V32.3318H30.6627C32.0958 32.3318 32.8124 31.655 32.8124 30.3015C32.8124 28.948 32.0958 28.2712 30.6627 28.2712H26.1019V24.3372C26.1019 22.5351 25.2266 21.6278 23.4761 21.6153C23.1148 21.6141 22.7567 21.6846 22.4226 21.8227C22.0885 21.9609 21.7848 22.1641 21.5291 22.4205C21.2734 22.6769 21.0707 22.9815 20.9325 23.3169C20.7944 23.6523 20.7236 24.0118 20.7242 24.3747V28.2665V32.3318ZM65.438 49.7745C63.6003 49.7745 62.6822 48.8524 62.6838 47.0081V30.6672C62.6838 28.8511 63.5583 27.943 65.3073 27.943C67.0563 27.943 67.9315 28.8511 67.9331 30.6672C68.9648 28.1915 71.1635 27.7812 74.5595 27.8539C75.8316 27.8867 76.6602 29.141 76.6602 30.0929C76.6602 31.6402 76.0253 32.3506 74.3891 32.5217L73.4438 32.6085C69.9178 32.9554 68.1548 34.77 68.1548 38.0523V46.9987C68.1548 48.8493 67.2492 49.7745 65.438 49.7745ZM48.3152 29.5231C48.486 29.3068 48.5953 29.0481 48.6315 28.7744C48.6676 28.5008 48.6293 28.2223 48.5206 27.9688C47.4913 25.561 46.476 22.9282 45.3276 20.6377C44.8608 19.6999 44.1606 19.8616 43.6658 20.6705C42.7322 22.1803 41.7215 23.6573 40.9816 25.2609C36.8316 34.2519 35.1791 37.3818 35.8677 47.1792C35.898 47.5989 36.059 55.1504 36.5212 58.3341C36.6169 58.9929 37.6882 59.2837 37.8376 58.6389C40.0736 49.5401 42.7135 45.9906 45.0219 42.6755C47.9908 38.4297 53.0091 34.2683 54.008 33.8463C51.3495 37.084 48.8054 40.3428 47.0619 44.1338C46.9808 44.3094 46.9367 44.4998 46.9322 44.6933C46.9278 44.8868 46.9632 45.0791 47.0361 45.2582C47.1091 45.4374 47.2181 45.5994 47.3562 45.7343C47.4944 45.8692 47.6588 45.974 47.8391 46.0422L58.7672 50.2294C58.895 50.2803 59.0351 50.2912 59.1691 50.2605C59.3032 50.2297 59.4247 50.1589 59.5178 50.0572C59.6109 49.9556 59.6711 49.828 59.6904 49.6913C59.7098 49.5546 59.6874 49.4152 59.6261 49.2916L55.7423 41.0344C55.2591 40.038 55.7983 39.0112 56.2558 38.0241C57.7682 34.7607 59.2651 31.4878 60.7465 28.2056C60.8179 28.0469 60.8422 27.8708 60.8162 27.6986C60.7903 27.5264 60.7153 27.3654 60.6003 27.2351C60.4854 27.1047 60.3353 27.0106 60.1682 26.964C60.0012 26.9173 59.8243 26.9203 59.6588 26.9724C51.4569 29.5958 45.33 34.6387 40.1974 41.2736C40.1974 41.2736 40.1787 41.2736 40.1857 41.2736C40.1927 41.2736 41.6235 37.6748 42.7322 36.1767C43.9179 34.5708 48.3152 29.5231 48.3152 29.5231ZM34.5442 40.2396C34.5442 39.3581 34.8173 37.6068 35.1348 36.3479C35.1587 36.2553 35.1539 36.1577 35.121 36.0679C35.0881 35.9782 35.0287 35.9008 34.9507 35.8459C34.8728 35.7911 34.78 35.7615 34.6848 35.7611C34.5896 35.7607 34.4966 35.7896 34.4182 35.8438C32.9166 36.9024 31.542 38.1321 30.3219 39.5082C30.2666 39.5707 30.2289 39.647 30.2129 39.7291C30.1968 39.8112 30.2029 39.8961 30.2305 39.9751C30.2581 40.054 30.3063 40.1241 30.37 40.178C30.4336 40.232 30.5105 40.2678 30.5927 40.2818L33.844 40.8422C33.9306 40.8561 34.0193 40.851 34.1037 40.8271C34.1881 40.8032 34.2664 40.7611 34.333 40.7038C34.3996 40.6464 34.453 40.5752 34.4895 40.4951C34.526 40.4149 34.5447 40.3278 34.5442 40.2396ZM107.717 27.9524H107.262C106.002 27.9524 104.982 29.1598 104.982 30.6461V38.8517C104.982 41.6018 103.094 43.8314 100.766 43.8314C98.4394 43.8314 96.5535 41.6018 96.5535 38.8517V30.6461C96.5535 29.1574 95.5311 27.9524 94.2707 27.9524H93.8156C92.5552 27.9524 91.5352 29.1598 91.5352 30.6461V38.9736C91.5352 43.9486 94.3828 48.1358 98.2573 49.3854V57.0564C98.2573 57.5464 98.4511 58.0163 98.796 58.3628C99.141 58.7092 99.6088 58.9039 100.097 58.9039H101.436C101.924 58.9039 102.392 58.7092 102.737 58.3628C103.082 58.0163 103.276 57.5464 103.276 57.0564V49.3314C107.159 47.9975 110 43.7657 110 38.7462V30.6461C110 29.1574 108.978 27.9524 107.717 27.9524ZM9.0492 49.8613C7.75027 49.8575 6.45404 49.7422 5.17465 49.5167C3.91757 49.308 2.69833 48.913 1.55684 48.3444C0.845725 47.9709 0.378911 47.502 0.156397 46.9378C-0.0578255 46.401 -0.0653147 45.8034 0.13539 45.2615C0.321724 44.7293 0.70556 44.29 1.20673 44.0353C1.72022 43.7634 2.31775 43.7704 3.00396 44.0564C4.04902 44.5038 5.13476 44.8485 6.24598 45.0856C7.18562 45.2837 8.14279 45.3858 9.10288 45.3904C10.3026 45.3904 11.188 45.1966 11.7591 44.809C12.0194 44.6499 12.2341 44.4255 12.3823 44.158C12.5304 43.8905 12.6068 43.5889 12.604 43.2828C12.604 42.2793 11.8765 41.6487 10.4216 41.3908L5.92388 40.5726C4.12665 40.26 2.75655 39.6152 1.81359 38.6384C0.870622 37.6615 0.403808 36.3861 0.413144 34.8122C0.376575 33.4789 0.795866 32.1732 1.60119 31.1127C2.4693 30.0304 3.60835 29.1994 4.90156 28.7049C6.44139 28.1065 8.0823 27.8143 9.73308 27.8445C12.2445 27.8445 14.4712 28.3322 16.4132 29.3075C17.0698 29.6201 17.4767 30.0639 17.6339 30.6391C17.7907 31.1945 17.7528 31.7871 17.5265 32.3177C17.3116 32.846 16.9171 33.2804 16.4132 33.5439C15.8997 33.8158 15.2858 33.794 14.5716 33.4782C13.7466 33.0898 12.887 32.7806 12.0041 32.5545C11.2896 32.3742 10.5562 32.2797 9.81944 32.2732C8.53571 32.2732 7.6083 32.4811 7.03723 32.8968C6.77537 33.0661 6.55982 33.2985 6.41021 33.5729C6.2606 33.8472 6.18168 34.1548 6.18063 34.4676C6.18063 35.471 6.85129 36.1017 8.1926 36.3596L12.688 37.1754C14.5428 37.488 15.9557 38.1132 16.9267 39.051C17.8977 39.9888 18.3831 41.2571 18.3831 42.8561C18.3831 45.0645 17.5273 46.7838 15.8157 48.0139C14.104 49.2439 11.8485 49.8597 9.0492 49.8613ZM86.0735 45.156C86.7597 45.4162 87.8964 44.9708 88.6876 45.4983C89.5559 46.0773 89.4696 47.3621 89.2035 47.967C88.6106 49.301 87.3035 49.7699 85.8564 49.7605C84.1613 49.7482 82.5102 49.2174 81.1229 48.2389C78.8239 46.2438 79.0759 43.3765 79.0339 42.1433V24.6725C79.0339 22.6844 80.0104 21.6903 81.9632 21.6903C83.8911 21.6903 84.8551 22.6844 84.8551 24.6725V41.9019C84.8528 43.9884 85.0185 44.7551 86.0712 45.156H86.0735Z" fill="url(#paint0_linear_138:106)"/>
</g>
<defs>
<filter id="filter0_d_138:106" x="105" y="0" width="39" height="39" filterUnits="userSpaceOnUse" color-interpolation-filters="sRGB">
<feFlood flood-opacity="0" result="BackgroundImageFix"/>
<feColorMatrix in="SourceAlpha" type="matrix" values="0 0 0 0 0 0 0 0 0 0 0 0 0 0 0 0 0 0 127 0" result="hardAlpha"/>
<feOffset/>
<feGaussianBlur stdDeviation="6"/>
<feColorMatrix type="matrix" values="0 0 0 0 0.709804 0 0 0 0 0.788235 0 0 0 0 1 0 0 0 0.6 0"/>
<feBlend mode="normal" in2="BackgroundImageFix" result="effect1_dropShadow_138:106"/>
<feBlend mode="normal" in="SourceGraphic" in2="effect1_dropShadow_138:106" result="shape"/>
</filter>
<linearGradient id="paint0_linear_138:106" x1="5.24233" y1="57.1103" x2="105.183" y2="27.8992" gradientUnits="userSpaceOnUse">
<stop stop-color="#314797"/>
<stop offset="1" stop-color="#5CEFF9"/>
</linearGradient>
<clipPath id="clip0_138:106">
<rect width="110" height="39" fill="white" transform="translate(0 20)"/>
</clipPath>
</defs>
</svg>
